# This file uses centimeters as units for non-parametric coordinates.

mtllib pudding2.mtl
g default
v 0.000000 0.677400 0.000000
v 0.000000 1.329134 0.000000
v -0.321281 1.270445 0.000000
v -0.247601 1.329134 0.000000
v -0.278237 1.270445 0.160640
v -0.214428 1.329134 0.123800
v -0.160640 1.270445 0.278237
v -0.123800 1.329134 0.214428
v 0.000000 1.270445 0.321281
v 0.000000 1.329134 0.247601
v 0.160640 1.270445 0.278237
v 0.123800 1.329134 0.214428
v 0.278237 1.270445 0.160640
v 0.214429 1.329134 0.123800
v 0.321281 1.270445 0.000000
v 0.247601 1.329134 0.000000
v -0.396359 0.677400 0.000000
v -0.432007 0.719156 0.000000
v -0.343257 0.677400 0.198179
v -0.374129 0.719156 0.216004
v -0.198180 0.677400 0.343257
v -0.216004 0.719156 0.374129
v 0.000000 0.677400 0.396359
v 0.000000 0.719156 0.432007
v 0.198180 0.677400 0.343257
v 0.216004 0.719156 0.374129
v 0.343257 0.677400 0.198180
v 0.374129 0.719156 0.216004
v 0.396359 0.677400 0.000000
v 0.432008 0.719156 0.000000
v -0.278237 1.270445 -0.160640
v -0.214428 1.329134 -0.123800
v -0.160640 1.270445 -0.278237
v -0.123800 1.329134 -0.214429
v 0.000000 1.270445 -0.321281
v 0.000000 1.329134 -0.247601
v 0.160640 1.270445 -0.278237
v 0.123800 1.329134 -0.214429
v 0.278237 1.270445 -0.160641
v 0.214429 1.329134 -0.123800
v -0.343257 0.677400 -0.198180
v -0.374129 0.719156 -0.216004
v -0.198180 0.677400 -0.343257
v -0.216004 0.719156 -0.374129
v 0.000000 0.677400 -0.396359
v 0.000000 0.719156 -0.432007
v 0.198180 0.677400 -0.343257
v 0.216004 0.719156 -0.374129
v 0.343257 0.677400 -0.198180
v 0.374129 0.719156 -0.216004
vt 0.708655 0.657123
vt 0.705128 0.698261
vt 0.342384 0.304256
vt 0.656922 0.638659
vt 0.421243 0.304250
vt 0.621582 0.596521
vt 0.500063 0.304244
vt 0.612098 0.542419
vt 0.578879 0.304238
vt 0.630897 0.490914
vt 0.657722 0.304231
vt 0.672847 0.455717
vt 0.736639 0.304225
vt 0.726762 0.445950
vt 0.717690 0.551754
vt 0.263415 0.072118
vt 0.253009 0.439619
vt 0.188545 0.499640
vt 0.342365 0.072112
vt 0.162454 0.583817
vt 0.421224 0.072106
vt 0.181943 0.669903
vt 0.500045 0.072100
vt 0.241965 0.734828
vt 0.578862 0.072093
vt 0.326555 0.761059
vt 0.657705 0.072087
vt 0.412912 0.741193
vt 0.424212 0.762503
vt 0.333059 0.590592
vt 0.762777 0.647735
vt 0.184309 0.304268
vt 0.804774 0.612228
vt 0.104849 0.304275
vt 0.823330 0.560529
vt 0.975309 0.304206
vt 0.813574 0.506577
vt 0.895173 0.304213
vt 0.778227 0.464752
vt 0.815730 0.304219
vt 0.184290 0.072124
vt 0.338863 0.419937
vt 0.104831 0.072131
vt 0.423179 0.445573
vt 0.024691 0.072137
vt 0.483501 0.510007
vt 0.895155 0.072069
vt 0.503564 0.596120
vt 0.815712 0.072075
vt 0.477813 0.680857
vt 0.498133 0.693296
vt 0.736622 0.072082
vt 0.527379 0.596656
vt 0.504387 0.498553
vt 0.435558 0.425224
vt 0.339503 0.396137
vt 0.241970 0.418799
vt 0.730186 0.406015
vt 0.801041 0.431252
vt 0.850025 0.488733
vt 0.863831 0.563230
vt 0.838480 0.634844
vt 0.780482 0.684300
vt 0.263433 0.304262
vt 0.325449 0.784859
vt 0.229045 0.754841
vt 0.160742 0.680765
vt 0.138665 0.582646
vt 0.168485 0.486816
vt 0.656069 0.418822
vt 0.598015 0.467125
vt 0.571729 0.538185
vt 0.584519 0.613068
vt 0.633251 0.671676
vt 0.024710 0.304280
vt 0.975291 0.072063
vn -0.357799 0.933799 0.000000
vn -0.965967 0.258664 0.000000
vn -0.836552 0.258664 0.482984
vn -0.309863 0.933799 0.178899
vn -0.309863 0.933799 0.178899
vn -0.836552 0.258664 0.482984
vn -0.482984 0.258664 0.836552
vn -0.178900 0.933799 0.309863
vn -0.178900 0.933799 0.309863
vn -0.482984 0.258664 0.836552
vn 0.000000 0.258664 0.965967
vn 0.000000 0.933799 0.357799
vn 0.000000 0.933799 0.357799
vn 0.000000 0.258664 0.965967
vn 0.482984 0.258664 0.836552
vn 0.178900 0.933799 0.309863
vn 0.178900 0.933799 0.309863
vn 0.482984 0.258664 0.836552
vn 0.836552 0.258664 0.482984
vn 0.309863 0.933799 0.178900
vn 0.309863 0.933799 0.178900
vn 0.836552 0.258664 0.482984
vn 0.965967 0.258664 0.000000
vn 0.357799 0.933799 0.000000
vn -0.357799 0.933799 0.000000
vn -0.309863 0.933799 0.178899
vn 0.000000 1.000000 0.000000
vn -0.309863 0.933799 0.178899
vn -0.178900 0.933799 0.309863
vn 0.000000 1.000000 0.000000
vn -0.178900 0.933799 0.309863
vn 0.000000 0.933799 0.357799
vn 0.000000 1.000000 0.000000
vn 0.000000 0.933799 0.357799
vn 0.178900 0.933799 0.309863
vn 0.000000 1.000000 0.000000
vn 0.178900 0.933799 0.309863
vn 0.309863 0.933799 0.178900
vn 0.000000 1.000000 0.000000
vn 0.309863 0.933799 0.178900
vn 0.357799 0.933799 0.000000
vn 0.000000 1.000000 0.000000
vn -0.992204 0.124627 -0.000000
vn -0.227958 -0.973671 0.000000
vn -0.197418 -0.973671 0.113979
vn -0.859274 0.124627 0.496102
vn -0.859274 0.124627 0.496102
vn -0.197418 -0.973671 0.113979
vn -0.113979 -0.973671 0.197418
vn -0.496102 0.124627 0.859274
vn -0.496102 0.124627 0.859274
vn -0.113979 -0.973671 0.197418
vn 0.000000 -0.973671 0.227958
vn 0.000000 0.124627 0.992204
vn 0.000000 0.124627 0.992204
vn 0.000000 -0.973671 0.227958
vn 0.113979 -0.973671 0.197418
vn 0.496102 0.124627 0.859274
vn 0.496102 0.124627 0.859274
vn 0.113979 -0.973671 0.197418
vn 0.197417 -0.973671 0.113979
vn 0.859274 0.124627 0.496102
vn 0.859274 0.124627 0.496102
vn 0.197417 -0.973671 0.113979
vn 0.227958 -0.973671 0.000000
vn 0.992204 0.124627 0.000000
vn -0.197418 -0.973671 0.113979
vn -0.227958 -0.973671 0.000000
vn 0.000000 -1.000000 0.000000
vn -0.113979 -0.973671 0.197418
vn -0.197418 -0.973671 0.113979
vn 0.000000 -1.000000 0.000000
vn 0.000000 -0.973671 0.227958
vn -0.113979 -0.973671 0.197418
vn 0.000000 -1.000000 0.000000
vn 0.113979 -0.973671 0.197418
vn 0.000000 -0.973671 0.227958
vn 0.000000 -1.000000 0.000000
vn 0.197417 -0.973671 0.113979
vn 0.113979 -0.973671 0.197418
vn 0.000000 -1.000000 0.000000
vn 0.227958 -0.973671 0.000000
vn 0.197417 -0.973671 0.113979
vn 0.000000 -1.000000 0.000000
vn -0.992204 0.124627 -0.000000
vn -0.859274 0.124627 0.496102
vn -0.836552 0.258664 0.482984
vn -0.965967 0.258664 0.000000
vn -0.859274 0.124627 0.496102
vn -0.496102 0.124627 0.859274
vn -0.482984 0.258664 0.836552
vn -0.836552 0.258664 0.482984
vn -0.496102 0.124627 0.859274
vn 0.000000 0.124627 0.992204
vn 0.000000 0.258664 0.965967
vn -0.482984 0.258664 0.836552
vn 0.000000 0.124627 0.992204
vn 0.496102 0.124627 0.859274
vn 0.482984 0.258664 0.836552
vn 0.000000 0.258664 0.965967
vn 0.496102 0.124627 0.859274
vn 0.859274 0.124627 0.496102
vn 0.836552 0.258664 0.482984
vn 0.482984 0.258664 0.836552
vn 0.859274 0.124627 0.496102
vn 0.992204 0.124627 0.000000
vn 0.965967 0.258664 0.000000
vn 0.836552 0.258664 0.482984
vn -0.357799 0.933799 0.000000
vn -0.309863 0.933799 -0.178899
vn -0.836552 0.258664 -0.482984
vn -0.965967 0.258664 0.000000
vn -0.309863 0.933799 -0.178899
vn -0.178900 0.933799 -0.309863
vn -0.482984 0.258664 -0.836552
vn -0.836552 0.258664 -0.482984
vn -0.178900 0.933799 -0.309863
vn -0.000000 0.933799 -0.357799
vn -0.000000 0.258664 -0.965967
vn -0.482984 0.258664 -0.836552
vn -0.000000 0.933799 -0.357799
vn 0.178900 0.933799 -0.309863
vn 0.482984 0.258664 -0.836552
vn -0.000000 0.258664 -0.965967
vn 0.178900 0.933799 -0.309863
vn 0.309863 0.933799 -0.178899
vn 0.836552 0.258664 -0.482984
vn 0.482984 0.258664 -0.836552
vn 0.309863 0.933799 -0.178899
vn 0.357799 0.933799 0.000000
vn 0.965967 0.258664 0.000000
vn 0.836552 0.258664 -0.482984
vn -0.357799 0.933799 0.000000
vn 0.000000 1.000000 0.000000
vn -0.309863 0.933799 -0.178899
vn -0.309863 0.933799 -0.178899
vn 0.000000 1.000000 0.000000
vn -0.178900 0.933799 -0.309863
vn -0.178900 0.933799 -0.309863
vn 0.000000 1.000000 0.000000
vn -0.000000 0.933799 -0.357799
vn -0.000000 0.933799 -0.357799
vn 0.000000 1.000000 0.000000
vn 0.178900 0.933799 -0.309863
vn 0.178900 0.933799 -0.309863
vn 0.000000 1.000000 0.000000
vn 0.309863 0.933799 -0.178899
vn 0.309863 0.933799 -0.178899
vn 0.000000 1.000000 0.000000
vn 0.357799 0.933799 0.000000
vn -0.992204 0.124627 -0.000000
vn -0.859274 0.124627 -0.496102
vn -0.197418 -0.973671 -0.113979
vn -0.227958 -0.973671 0.000000
vn -0.859274 0.124627 -0.496102
vn -0.496102 0.124627 -0.859274
vn -0.113979 -0.973671 -0.197418
vn -0.197418 -0.973671 -0.113979
vn -0.496102 0.124627 -0.859274
vn -0.000000 0.124627 -0.992204
vn 0.000000 -0.973671 -0.227958
vn -0.113979 -0.973671 -0.197418
vn -0.000000 0.124627 -0.992204
vn 0.496102 0.124627 -0.859274
vn 0.113979 -0.973671 -0.197418
vn 0.000000 -0.973671 -0.227958
vn 0.496102 0.124627 -0.859274
vn 0.859274 0.124627 -0.496102
vn 0.197417 -0.973671 -0.113979
vn 0.113979 -0.973671 -0.197418
vn 0.859274 0.124627 -0.496102
vn 0.992204 0.124627 0.000000
vn 0.227958 -0.973671 0.000000
vn 0.197417 -0.973671 -0.113979
vn -0.197418 -0.973671 -0.113979
vn 0.000000 -1.000000 0.000000
vn -0.227958 -0.973671 0.000000
vn -0.113979 -0.973671 -0.197418
vn 0.000000 -1.000000 0.000000
vn -0.197418 -0.973671 -0.113979
vn 0.000000 -0.973671 -0.227958
vn 0.000000 -1.000000 0.000000
vn -0.113979 -0.973671 -0.197418
vn 0.113979 -0.973671 -0.197418
vn 0.000000 -1.000000 0.000000
vn 0.000000 -0.973671 -0.227958
vn 0.197417 -0.973671 -0.113979
vn 0.000000 -1.000000 0.000000
vn 0.113979 -0.973671 -0.197418
vn 0.227958 -0.973671 0.000000
vn 0.000000 -1.000000 0.000000
vn 0.197417 -0.973671 -0.113979
vn -0.992204 0.124627 -0.000000
vn -0.965967 0.258664 0.000000
vn -0.836552 0.258664 -0.482984
vn -0.859274 0.124627 -0.496102
vn -0.859274 0.124627 -0.496102
vn -0.836552 0.258664 -0.482984
vn -0.482984 0.258664 -0.836552
vn -0.496102 0.124627 -0.859274
vn -0.496102 0.124627 -0.859274
vn -0.482984 0.258664 -0.836552
vn -0.000000 0.258664 -0.965967
vn -0.000000 0.124627 -0.992204
vn -0.000000 0.124627 -0.992204
vn -0.000000 0.258664 -0.965967
vn 0.482984 0.258664 -0.836552
vn 0.496102 0.124627 -0.859274
vn 0.496102 0.124627 -0.859274
vn 0.482984 0.258664 -0.836552
vn 0.836552 0.258664 -0.482984
vn 0.859274 0.124627 -0.496102
vn 0.859274 0.124627 -0.496102
vn 0.836552 0.258664 -0.482984
vn 0.965967 0.258664 0.000000
vn 0.992204 0.124627 0.000000
s off
g pudding:pCylinder4
usemtl initialShadingGroup
f 4/1/1 3/2/2 5/74/3 6/4/4
f 6/4/5 5/74/6 7/73/7 8/6/8
f 8/6/9 7/73/10 9/72/11 10/8/12
f 10/8/13 9/72/14 11/71/15 12/10/16
f 12/10/17 11/71/18 13/70/19 14/12/20
f 14/12/21 13/70/22 15/58/23 16/14/24
f 4/1/25 6/4/26 2/15/27
f 6/4/28 8/6/29 2/15/30
f 8/6/31 10/8/32 2/15/33
f 10/8/34 12/10/35 2/15/36
f 12/10/37 14/12/38 2/15/39
f 14/12/40 16/14/41 2/15/42
f 18/57/43 17/17/44 19/18/45 20/69/46
f 20/69/47 19/18/48 21/20/49 22/68/50
f 22/68/51 21/20/52 23/22/53 24/67/54
f 24/67/55 23/22/56 25/24/57 26/66/58
f 26/66/59 25/24/60 27/26/61 28/65/62
f 28/65/63 27/26/64 29/28/65 30/29/66
f 19/18/67 17/17/68 1/30/69
f 21/20/70 19/18/71 1/30/72
f 23/22/73 21/20/74 1/30/75
f 25/24/76 23/22/77 1/30/78
f 27/26/79 25/24/80 1/30/81
f 29/28/82 27/26/83 1/30/84
f 18/16/85 20/19/86 5/3/87 3/64/88
f 20/19/89 22/21/90 7/5/91 5/3/92
f 22/21/93 24/23/94 9/7/95 7/5/96
f 24/23/97 26/25/98 11/9/99 9/7/100
f 26/25/101 28/27/102 13/11/103 11/9/104
f 28/27/105 30/52/106 15/13/107 13/11/108
f 4/1/109 32/31/110 31/63/111 3/2/112
f 32/31/113 34/33/114 33/62/115 31/63/116
f 34/33/117 36/35/118 35/61/119 33/62/120
f 36/35/121 38/37/122 37/60/123 35/61/124
f 38/37/125 40/39/126 39/59/127 37/60/128
f 40/39/129 16/14/130 15/58/131 39/59/132
f 4/1/133 2/15/134 32/31/135
f 32/31/136 2/15/137 34/33/138
f 34/33/139 2/15/140 36/35/141
f 36/35/142 2/15/143 38/37/144
f 38/37/145 2/15/146 40/39/147
f 40/39/148 2/15/149 16/14/150
f 18/57/151 42/56/152 41/42/153 17/17/154
f 42/56/155 44/55/156 43/44/157 41/42/158
f 44/55/159 46/54/160 45/46/161 43/44/162
f 46/54/163 48/53/164 47/48/165 45/46/166
f 48/53/167 50/51/168 49/50/169 47/48/170
f 50/51/171 30/29/172 29/28/173 49/50/174
f 41/42/175 1/30/176 17/17/177
f 43/44/178 1/30/179 41/42/180
f 45/46/181 1/30/182 43/44/183
f 47/48/184 1/30/185 45/46/186
f 49/50/187 1/30/188 47/48/189
f 29/28/190 1/30/191 49/50/192
f 18/16/193 3/64/194 31/32/195 42/41/196
f 42/41/197 31/32/198 33/34/199 44/43/200
f 44/43/201 33/34/202 35/75/203 46/45/204
f 46/76/205 35/36/206 37/38/207 48/47/208
f 48/47/209 37/38/210 39/40/211 50/49/212
f 50/49/213 39/40/214 15/13/215 30/52/216
